<svg xmlns="http://www.w3.org/2000/svg" xmlns:xlink="http://www.w3.org/1999/xlink" width="1920" zoomAndPan="magnify" viewBox="0 0 1440 809.999993" height="1080" preserveAspectRatio="xMidYMid meet" version="1.0"><defs><g/><clipPath id="6640bacd9d"><path d="M 351.464844 36.464844 L 1089.417969 36.464844 L 1089.417969 774.417969 L 351.464844 774.417969 Z M 351.464844 36.464844 " clip-rule="nonzero"/></clipPath><clipPath id="c4019d2e62"><path d="M 720.441406 36.464844 C 516.660156 36.464844 351.464844 201.660156 351.464844 405.441406 C 351.464844 609.222656 516.660156 774.417969 720.441406 774.417969 C 924.222656 774.417969 1089.417969 609.222656 1089.417969 405.441406 C 1089.417969 201.660156 924.222656 36.464844 720.441406 36.464844 Z M 720.441406 36.464844 " clip-rule="nonzero"/></clipPath><clipPath id="7b05771d12"><path d="M 384.816406 67.667969 L 1055.183594 67.667969 L 1055.183594 738.035156 L 384.816406 738.035156 Z M 384.816406 67.667969 " clip-rule="nonzero"/></clipPath><clipPath id="6d1a4461b0"><path d="M 720 67.667969 C 534.882812 67.667969 384.816406 217.734375 384.816406 402.851562 C 384.816406 587.96875 534.882812 738.035156 720 738.035156 C 905.117188 738.035156 1055.183594 587.96875 1055.183594 402.851562 C 1055.183594 217.734375 905.117188 67.667969 720 67.667969 Z M 720 67.667969 " clip-rule="nonzero"/></clipPath><clipPath id="104cdd19b8"><path d="M 673.855469 63.625 L 766.144531 63.625 L 766.144531 102.894531 L 673.855469 102.894531 Z M 673.855469 63.625 " clip-rule="nonzero"/></clipPath><clipPath id="99de1609e4"><path d="M 673.855469 698.765625 L 766.144531 698.765625 L 766.144531 738.035156 L 673.855469 738.035156 Z M 673.855469 698.765625 " clip-rule="nonzero"/></clipPath><clipPath id="d3bf9c707a"><path d="M 323.296875 6.152344 L 1116.691406 6.152344 L 1116.691406 799.546875 L 323.296875 799.546875 Z M 323.296875 6.152344 " clip-rule="nonzero"/></clipPath><clipPath id="3e352f56d8"><path d="M 719.996094 6.152344 C 500.90625 6.152344 323.296875 183.757812 323.296875 402.847656 C 323.296875 621.9375 500.90625 799.546875 719.996094 799.546875 C 939.085938 799.546875 1116.691406 621.9375 1116.691406 402.847656 C 1116.691406 183.757812 939.085938 6.152344 719.996094 6.152344 Z M 719.996094 6.152344 " clip-rule="nonzero"/></clipPath></defs><g clip-path="url(#6640bacd9d)"><g clip-path="url(#c4019d2e62)"><path fill="#ffffff" d="M 351.464844 36.464844 L 1089.417969 36.464844 L 1089.417969 774.417969 L 351.464844 774.417969 Z M 351.464844 36.464844 " fill-opacity="1" fill-rule="nonzero"/></g></g><g clip-path="url(#7b05771d12)"><g clip-path="url(#6d1a4461b0)"><path fill="#6b8068" d="M 384.816406 67.667969 L 1055.183594 67.667969 L 1055.183594 738.035156 L 384.816406 738.035156 Z M 384.816406 67.667969 " fill-opacity="1" fill-rule="nonzero"/></g></g><g fill="#ffffff" fill-opacity="1"><g transform="translate(553.168636, 691.999893)"><g><path d="M 14.886719 -126.976562 L 161.128906 -126.976562 L 161.128906 -228.558594 L 136.609375 -228.558594 C 106.25 -228.558594 83.484375 -231.183594 68.304688 -236.4375 C 53.125 -241.691406 41.449219 -251.324219 33.277344 -265.335938 C 29.191406 -271.757812 25.832031 -278.472656 23.207031 -285.476562 C 20.578125 -292.484375 18.390625 -300.65625 16.636719 -309.996094 C 14.886719 -319.339844 13.71875 -330.429688 13.136719 -343.273438 C 12.550781 -356.117188 12.261719 -371.296875 12.261719 -388.8125 L 12.261719 -424.714844 C 12.261719 -497.105469 24.226562 -543.519531 48.164062 -563.949219 C 53.417969 -568.039062 58.816406 -571.539062 64.363281 -574.460938 C 69.910156 -577.378906 77.0625 -579.421875 85.820312 -580.589844 C 94.574219 -581.757812 105.8125 -582.632812 119.53125 -583.214844 C 133.253906 -583.800781 150.621094 -584.09375 171.636719 -584.09375 L 306.496094 -584.09375 L 306.496094 -457.117188 L 169.011719 -457.117188 L 169.011719 -355.535156 L 197.03125 -355.535156 C 222.136719 -355.535156 242.859375 -353.34375 259.207031 -348.964844 C 275.554688 -344.589844 288.398438 -336.5625 297.738281 -324.882812 C 307.078125 -313.207031 313.5 -297.300781 317.003906 -277.160156 C 320.507812 -257.019531 322.257812 -231.476562 322.257812 -200.535156 L 322.257812 -164.632812 C 322.257812 -129.605469 320.214844 -101.289062 316.128906 -79.6875 C 312.042969 -58.089844 305.621094 -41.742188 296.863281 -30.648438 C 288.6875 -20.726562 279.496094 -13.425781 269.277344 -8.757812 C 259.0625 -4.085938 245.195312 -1.167969 227.683594 0 L 14.886719 0 Z M 14.886719 -126.976562 "/></g></g></g><g clip-path="url(#104cdd19b8)"><path fill="#ffffff" d="M 673.855469 63.625 L 766.199219 63.625 L 766.199219 102.894531 L 673.855469 102.894531 Z M 673.855469 63.625 " fill-opacity="1" fill-rule="nonzero"/></g><g clip-path="url(#99de1609e4)"><path fill="#ffffff" d="M 673.855469 698.765625 L 766.199219 698.765625 L 766.199219 738.035156 L 673.855469 738.035156 Z M 673.855469 698.765625 " fill-opacity="1" fill-rule="nonzero"/></g><g clip-path="url(#d3bf9c707a)"><g clip-path="url(#3e352f56d8)"><path stroke-linecap="butt" transform="matrix(0.75, 0, 0, 0.75, 323.298681, 6.151139)" fill="none" stroke-linejoin="miter" d="M 528.92991 0.00160659 C 236.810104 0.00160659 -0.00240821 236.80891 -0.00240821 528.928717 C -0.00240821 821.048523 236.810104 1057.861035 528.92991 1057.861035 C 821.049716 1057.861035 1057.85702 821.048523 1057.85702 528.928717 C 1057.85702 236.80891 821.049716 0.00160659 528.92991 0.00160659 Z M 528.92991 0.00160659 " stroke="#2c463f" stroke-width="88" stroke-opacity="1" stroke-miterlimit="4"/></g></g></svg>